<?xml version="1.0" encoding="utf-8"?>
<!-- Generator: Fusion 360, Shaper Origin Export Add-In, Version 1.7.0  -->
<svg xmlns="http://www.w3.org/2000/svg" xmlns:xlink="http://www.w3.org/1999/xlink" xmlns:shaper="http://www.shapertools.com/namespaces/shaper" shaper:fusionaddin="version:1.7.0" width="12.9309809cm" height="4.5cm" version="1.1" x="0cm" y="0cm" viewBox="0 0 12.9309809 4.5" enable-background="new 0 0 12.9309809 4.5" xml:space="preserve"><path d="M3.2345096,1.1997708 L6.4654904,1.1997708 A1.5,1.5 17.4484273 0,1 5.0345096,2.25 L-4.9654904,2.25 A1.5,1.5 90 0,1 -6.4654904,0.75 L-6.4654904,-0.75 A1.5,1.5 180 0,1 -4.9654904,-2.25 L3.2345096,-2.25 3.2345096,1.1997708z" transform="matrix(1,0,0,-1,6.4654904,2.25)" fill="rgb(0,0,0)" shaper:cutDepth="0.5cm" stroke-linecap="round" stroke-linejoin="round" /><path d="M-5.4812904,0 a0.1,0.1 0 1,1 0.2,0 a0.1,0.1 0 1,1 -0.2,0z" transform="matrix(1,0,0,-1,6.4654904,2.25)" fill="rgb(255,255,255)" stroke="rgb(0,0,0)" stroke-width="0.0010cm" stroke-linecap="round" stroke-linejoin="round" shaper:cutDepth="0.5cm" /><path d="M-4.4412904,1.04 a0.1,0.1 0 1,1 0.2,0 a0.1,0.1 0 1,1 -0.2,0z" transform="matrix(1,0,0,-1,6.4654904,2.25)" fill="rgb(255,255,255)" stroke="rgb(0,0,0)" stroke-width="0.0010cm" stroke-linecap="round" stroke-linejoin="round" shaper:cutDepth="0.5cm" /><path d="M-4.4412904,-1.6242 a0.1,0.1 0 1,1 0.2,0 a0.1,0.1 0 1,1 -0.2,0z" transform="matrix(1,0,0,-1,6.4654904,2.25)" fill="rgb(255,255,255)" stroke="rgb(0,0,0)" stroke-width="0.0010cm" stroke-linecap="round" stroke-linejoin="round" shaper:cutDepth="0.5cm" /><path d="M1.9145096,-0.9758 a0.22,0.22 0 1,1 0.44,0 a0.22,0.22 0 1,1 -0.44,0z" transform="matrix(1,0,0,-1,6.4654904,2.25)" fill="rgb(255,255,255)" stroke="rgb(0,0,0)" stroke-width="0.0010cm" stroke-linecap="round" stroke-linejoin="round" shaper:cutDepth="0.5cm" /><path d="M-6.0654904,0 a0.1,0.1 0 1,1 0.2,0 a0.1,0.1 0 1,1 -0.2,0z" transform="matrix(1,0,0,-1,6.4654904,2.25)" fill="rgb(255,255,255)" stroke="rgb(0,0,0)" stroke-width="0.0010cm" stroke-linecap="round" stroke-linejoin="round" shaper:cutDepth="0.5cm" /><path d="M1.9145096,0.9758 a0.22,0.22 0 1,1 0.44,0 a0.22,0.22 0 1,1 -0.44,0z" transform="matrix(1,0,0,-1,6.4654904,2.25)" fill="rgb(255,255,255)" stroke="rgb(0,0,0)" stroke-width="0.0010cm" stroke-linecap="round" stroke-linejoin="round" shaper:cutDepth="0.5cm" /><path d="M-2.8170904,0 a0.1,0.1 0 1,1 0.2,0 a0.1,0.1 0 1,1 -0.2,0z" transform="matrix(1,0,0,-1,6.4654904,2.25)" fill="rgb(255,255,255)" stroke="rgb(0,0,0)" stroke-width="0.0010cm" stroke-linecap="round" stroke-linejoin="round" shaper:cutDepth="0.5cm" /><path d="M-4.4412904,1.6242 a0.1,0.1 0 1,1 0.2,0 a0.1,0.1 0 1,1 -0.2,0z" transform="matrix(1,0,0,-1,6.4654904,2.25)" fill="rgb(255,255,255)" stroke="rgb(0,0,0)" stroke-width="0.0010cm" stroke-linecap="round" stroke-linejoin="round" shaper:cutDepth="0.5cm" /><path d="M-4.4412904,-1.04 a0.1,0.1 0 1,1 0.2,0 a0.1,0.1 0 1,1 -0.2,0z" transform="matrix(1,0,0,-1,6.4654904,2.25)" fill="rgb(255,255,255)" stroke="rgb(0,0,0)" stroke-width="0.0010cm" stroke-linecap="round" stroke-linejoin="round" shaper:cutDepth="0.5cm" /><path d="M-4.8112904,0 a0.47,0.47 0 1,1 0.94,0 a0.47,0.47 0 1,1 -0.94,0z" transform="matrix(1,0,0,-1,6.4654904,2.25)" fill="rgb(255,255,255)" stroke="rgb(0,0,0)" stroke-width="0.0010cm" stroke-linecap="round" stroke-linejoin="round" shaper:cutDepth="0.5cm" /><path d="M-3.4012904,0 a0.1,0.1 0 1,1 0.2,0 a0.1,0.1 0 1,1 -0.2,0z" transform="matrix(1,0,0,-1,6.4654904,2.25)" fill="rgb(255,255,255)" stroke="rgb(0,0,0)" stroke-width="0.0010cm" stroke-linecap="round" stroke-linejoin="round" shaper:cutDepth="0.5cm" /></svg>