<?xml version="1.0" encoding="utf-8"?>
<!-- Generator: Fusion 360, Shaper Origin Export Add-In, Version 1.7.0  -->
<svg xmlns="http://www.w3.org/2000/svg" xmlns:xlink="http://www.w3.org/1999/xlink" xmlns:shaper="http://www.shapertools.com/namespaces/shaper" shaper:fusionaddin="version:1.7.0" width="22.86cm" height="20cm" version="1.1" x="0cm" y="0cm" viewBox="0 0 22.86 20" enable-background="new 0 0 22.86 20" xml:space="preserve"><path d="M-4.969961,10 L-8.5151771,10 A2,2 90 0,1 -10.4300773,8.5771978 A23.5,23.5 163.2259086 0,1 -11.43,1.7951241 L-11.43,-6 A4,4 180 0,1 -7.43,-10 L7.43,-10 A4,4 270 0,1 11.43,-6 L11.43,1.7951241 A23.5,23.5 0 0,1 10.4300773,8.5771978 A2,2 16.7740914 0,1 8.5151771,10 L4.969961,10 A2,2 90 0,1 3.0584376,8.5882839 A3.2,3.2 342.8939068 0,0 -3.0584376,8.5882839 A2,2 17.1060932 0,1 -4.969961,10z" transform="matrix(1,0,0,-1,11.43,10)" fill="rgb(0,0,0)" shaper:cutDepth="0.3175cm" stroke-linecap="round" stroke-linejoin="round" /><path d="M-9.15,-7.5 a0.22,0.22 0 1,1 0.44,0 a0.22,0.22 0 1,1 -0.44,0z" transform="matrix(1,0,0,-1,11.43,10)" fill="rgb(255,255,255)" stroke="rgb(0,0,0)" stroke-width="0.0010cm" stroke-linecap="round" stroke-linejoin="round" shaper:cutDepth="0.3175cm" /><path d="M8.71,-7.5 a0.22,0.22 0 1,1 0.44,0 a0.22,0.22 0 1,1 -0.44,0z" transform="matrix(1,0,0,-1,11.43,10)" fill="rgb(255,255,255)" stroke="rgb(0,0,0)" stroke-width="0.0010cm" stroke-linecap="round" stroke-linejoin="round" shaper:cutDepth="0.3175cm" /><path d="M8.71,8.5 a0.22,0.22 0 1,1 0.44,0 a0.22,0.22 0 1,1 -0.44,0z" transform="matrix(1,0,0,-1,11.43,10)" fill="rgb(255,255,255)" stroke="rgb(0,0,0)" stroke-width="0.0010cm" stroke-linecap="round" stroke-linejoin="round" shaper:cutDepth="0.3175cm" /><path d="M-9.15,8.5 a0.22,0.22 0 1,1 0.44,0 a0.22,0.22 0 1,1 -0.44,0z" transform="matrix(1,0,0,-1,11.43,10)" fill="rgb(255,255,255)" stroke="rgb(0,0,0)" stroke-width="0.0010cm" stroke-linecap="round" stroke-linejoin="round" shaper:cutDepth="0.3175cm" /><path d="M-0.22,-1.5 a0.22,0.22 0 1,1 0.44,0 a0.22,0.22 0 1,1 -0.44,0z" transform="matrix(1,0,0,-1,11.43,10)" fill="rgb(255,255,255)" stroke="rgb(0,0,0)" stroke-width="0.0010cm" stroke-linecap="round" stroke-linejoin="round" shaper:cutDepth="0.3175cm" /></svg>